<?xml version="1.0" encoding="UTF-8"?>
<svg width="25px" height="25px" viewBox="0 0 25 25" version="1.1" xmlns="http://www.w3.org/2000/svg" xmlns:xlink="http://www.w3.org/1999/xlink">
    <!-- Generator: Sketch 57.1 (83088) - https://sketch.com -->
    <title>Group 26</title>
    <desc>Created with Sketch.</desc>
    <g id="home" stroke="none" stroke-width="1" fill="none" fill-rule="evenodd">
        <g id="zerodark-home-desktop-copy-5" transform="translate(-852.000000, -7975.000000)" fill="#1C1B1B">
            <g id="Group-26" transform="translate(852.000000, 7975.000000)">
                <path d="M20.1101906,12.2638205 C20.1101906,7.93761039 16.6037506,4.41794032 12.2638205,4.41794032 C7.93761039,4.41794032 4.41794032,7.93761039 4.41794032,12.2638205 C4.41794032,16.6032606 7.93761039,20.1097006 12.2638205,20.1097006 C16.6037506,20.1097006 20.1101906,16.6032606 20.1101906,12.2638205 Z M19.9622106,3.3561103 C19.2639606,3.3561103 18.6994806,3.92059031 18.6994806,4.61884032 C18.6994806,5.31758034 19.2639606,5.88206035 19.9622106,5.88206035 C20.6609506,5.88206035 21.2254306,5.31758034 21.2254306,4.61884032 C21.2254306,3.92059031 20.6609506,3.3561103 19.9622106,3.3561103 Z M5.85560035,1.54262026 L18.6862506,1.54262026 C21.0642206,1.54262026 22.9987407,3.4771403 22.9987407,5.85560035 L22.9987407,18.6857606 C22.9987407,21.0637306 21.0642206,22.9982507 18.6862506,22.9982507 L5.85560035,22.9982507 C3.4771403,22.9982507 1.54311026,21.0637306 1.54311026,18.6857606 L1.54311026,5.85560035 C1.54311026,3.4771403 3.4771403,1.54262026 5.85560035,1.54262026 Z M18.6862506,0.104960236 L5.85560035,0.104960236 C2.69853029,0.104960236 0.105450236,2.68432029 0.105450236,5.85560035 L0.105450236,18.6857606 C0.105450236,21.8428307 2.69853029,24.4359107 5.85560035,24.4359107 L18.6862506,24.4359107 C21.8570407,24.4359107 24.4364007,21.8428307 24.4364007,18.6857606 L24.4364007,5.85560035 C24.4364007,2.68432029 21.8570407,0.104960236 18.6862506,0.104960236 Z M6.05699035,12.2638205 C6.05699035,8.83774041 8.83823041,6.04327035 12.2638205,6.04327035 C15.7036205,6.04327035 18.4843706,8.83774041 18.4843706,12.2638205 C18.4843706,15.7026405 15.7036205,18.4843706 12.2638205,18.4843706 C8.83823041,18.4843706 6.05699035,15.7026405 6.05699035,12.2638205 L6.05699035,12.2638205 Z" id="Fill-74"></path>
            </g>
        </g>
    </g>
</svg>