<?xml version="1.0" encoding="UTF-8"?>
<svg width="163px" height="163px" viewBox="0 0 163 163" version="1.1" xmlns="http://www.w3.org/2000/svg" xmlns:xlink="http://www.w3.org/1999/xlink">
    <!-- Generator: Sketch 57.1 (83088) - https://sketch.com -->
    <title>FedEx_Express_logo_violet</title>
    <desc>Created with Sketch.</desc>
    <g id="home" stroke="none" stroke-width="1" fill="none" fill-rule="evenodd">
        <g id="zerodark-home-desktop-copy-5" transform="translate(-628.000000, -6655.000000)" fill-rule="nonzero">
            <g id="Group-20" transform="translate(4.000000, -0.000000)">
                <g id="FedEx_Express_logo_violet" transform="translate(624.260012, 6655.180130)">
                    <polygon id="Path" fill="#43338E" points="0.245000005 0 162.435003 0 162.435003 162.190003 0.245000005 162.190003"></polygon>
                    <path d="M127.706172,90.1600018 L122.967046,84.8279245 L118.274883,90.1600018 L108.397441,90.1600018 L118.053484,79.2728358 L108.397441,68.3856699 L118.584339,68.3856699 L123.367075,73.6739864 L127.971181,68.3856699 L137.802498,68.3856699 L128.19258,79.2282335 L137.935003,90.1591602 L127.706172,90.1600018 L127.706172,90.1600018 Z M89.4250017,90.1600018 L89.4250017,55.8600011 L108.397441,55.8600011 L108.397441,63.5055064 L97.460802,63.5055064 L97.460802,68.3856699 L108.397441,68.3856699 L108.397441,75.7408396 L97.460802,75.7408396 L97.460802,82.4934576 L108.397441,82.4934576 L108.397441,90.1600018 L89.4250017,90.1600018 Z" id="Shape" fill="#D9782D"></path>
                    <path d="M81.1715714,55.8600011 L81.1715714,69.8641447 L81.0831456,69.8641447 C79.3045234,67.8248123 77.0812455,67.1153698 74.5025801,67.1153698 C69.2180845,67.1153698 65.2380803,70.6978446 63.8417945,75.4313795 C62.2476032,70.2159275 58.13875,67.0188184 52.0466318,67.0188184 C47.0981544,67.0188184 43.1914173,69.2327829 41.1517283,72.840445 L41.1517283,68.3562645 L30.922966,68.3562645 L30.922966,63.4875577 L42.0839891,63.4875577 L42.0839891,55.8600011 L21.8050004,55.8600011 L21.8050004,90.0794787 L30.922966,90.0794787 L30.922966,75.6941671 L40.009772,75.6941671 C39.7297051,76.7999293 39.5899389,77.9363604 39.5937495,79.0768227 C39.5937495,86.214906 45.0643604,91.2238221 52.0457897,91.2238221 C57.91558,91.2238221 61.7835782,88.4758867 63.8300044,83.4669706 L56.0165302,83.4669706 C54.9604732,84.9731716 54.1579036,85.418987 52.0457897,85.418987 C49.5951312,85.418987 47.4830172,83.2889803 47.4830172,80.7618536 L63.3929281,80.7618536 C64.0826496,86.4306772 68.5123622,91.3203734 74.5910059,91.3203734 C77.2143053,91.3203734 79.6161191,90.0349811 81.0831456,87.8621559 L81.1715714,87.8621559 L81.1715714,90.0794787 L89.2073734,90.0794787 L89.2073734,55.8600011 L81.1715714,55.8600011 Z M47.7365046,75.7965955 C48.2434793,73.6246099 49.9336758,72.2032061 52.0457897,72.2032061 C54.3684413,72.2032061 55.9744227,73.5809519 56.3963402,75.7965955 L47.7365046,75.7965955 Z M76.2938346,84.8699037 C73.3311485,84.8699037 71.4910492,82.1169308 71.4910492,79.2438985 C71.4910492,76.1718864 73.0911355,73.2190942 76.2938346,73.2190942 C79.6144348,73.2190942 80.9357692,76.1718864 80.9357692,79.2438985 C80.9357692,82.1555514 79.5344305,84.8699037 76.2938346,84.8699037 Z M114.414628,106.373149 L114.414628,105.778728 C115.199512,105.742626 115.496792,105.406796 115.496792,104.848477 L115.496792,99.7942237 C115.496792,98.5306603 115.272779,98.1226259 114.340519,98.084845 L114.340519,97.4912641 L116.911605,97.4845475 L116.911605,99.5339548 L116.949502,99.5339548 C117.191199,98.5692809 117.864077,97.267097 118.980769,97.267097 C119.770706,97.267097 120.388845,97.8959402 120.388845,98.8916784 C120.388845,99.5935648 119.982928,99.9671765 119.500376,99.9671765 C119.089406,99.9671765 118.62875,99.6985119 118.62875,98.9966256 C118.62875,98.5499706 119.00856,98.1805567 119.199728,98.1016365 C119.166884,97.9278441 118.9774,97.8623571 118.89908,97.8623571 C117.757966,97.8623571 117.09772,100.593501 117.09772,102.212205 L117.09772,104.849317 C117.09772,105.407635 117.398368,105.743466 118.666647,105.779568 L118.666647,106.373988 L114.414628,106.373988 L114.414628,106.373149 L114.414628,106.373149 Z M108.64758,102.287767 C108.64758,99.1275996 109.579841,97.9748604 110.549156,97.9748604 C111.501629,97.9748604 112.172823,99.1275996 112.172823,101.988878 C112.172823,104.814054 111.501629,106.003735 110.512944,106.003735 C109.748271,106.004574 108.64758,105.148206 108.64758,102.287767 Z M106.297137,98.0873637 C106.788953,98.1368987 107.044125,98.2938996 107.044125,99.0461606 L107.044125,108.23617 C107.044125,108.794489 106.747688,109.126961 105.85164,109.164742 L105.85164,109.760002 L110.027865,109.760002 L110.027865,109.164742 C108.947386,109.126122 108.64758,108.794489 108.64758,108.23617 L108.64758,105.390844 L108.685477,105.390844 C109.05855,106.079297 109.674162,106.598155 110.642635,106.598155 C112.675587,106.598155 113.997763,104.499213 113.997763,101.933466 C113.997763,100.036022 112.936653,97.2687762 110.808539,97.2687762 C109.617738,97.2687762 108.853065,98.1234655 108.573471,99.0159358 L108.537258,99.0159358 L108.537258,97.485387 L106.297137,97.485387 L106.297137,98.0873637 L106.297137,98.0873637 Z M87.8279305,106.382384 L87.8279305,105.785445 C88.9808348,105.709883 89.2082155,105.488235 89.2082155,104.521882 L89.2082155,95.4569691 C89.2082155,94.4897764 88.9808348,94.2689677 87.8279305,94.1925662 L87.8279305,93.5989853 L96.6225102,93.5989853 L96.6225102,98.0739305 L96.0254254,98.0739305 C95.6094029,95.6719008 94.9070493,94.1925662 92.725879,94.1925662 C91.4053867,94.1925662 91.0314718,94.6014402 91.0314718,95.4569691 L91.0314718,99.3223814 L91.7169824,99.3223814 C93.0425276,99.3223814 93.3751772,98.6339283 93.5823462,97.0899463 L94.1760625,97.0899463 L94.1760625,102.218082 L93.5823462,102.218082 C93.3221217,100.658148 92.8353586,100.028466 91.6824543,100.028466 L91.0314718,100.028466 L91.0314718,104.522721 C91.0314718,105.267426 91.3127501,105.786284 92.4294419,105.786284 C94.8337822,105.786284 95.9572112,104.636064 96.2864921,101.775625 L96.8835769,101.775625 L96.8835769,106.383224 L87.8279305,106.383224 L87.8279305,106.382384 L87.8279305,106.382384 Z M105.919012,106.382384 L102.04175,106.382384 L102.04175,105.785445 C102.749157,105.785445 102.899059,105.618369 102.899059,105.37909 C102.899059,105.117142 102.733156,104.910606 101.335186,102.814182 C100.160385,104.671326 99.9565848,105.023109 99.9565848,105.266586 C99.9565848,105.580588 100.254706,105.746824 100.81221,105.785445 L100.81221,106.382384 L97.6179323,106.382384 L97.6179323,105.785445 C98.3354447,105.67546 98.8205235,105.415191 99.3797116,104.559662 L100.9259,102.181141 L98.5409295,98.5768371 C98.2992323,98.2065836 98.1316443,98.1327009 97.5328751,98.0957595 L97.5328751,97.4988203 L101.222337,97.4988203 L101.222337,98.0957595 C100.646306,98.0957595 100.386924,98.1486528 100.386924,98.4853232 C100.386924,98.7439129 100.590724,98.9126679 101.895216,100.916738 C103.049804,99.0990539 103.237604,98.892518 103.237604,98.5046335 C103.237604,98.243525 103.032119,98.0957595 102.341556,98.0957595 L102.341556,97.4988203 L105.396036,97.4988203 L105.396036,98.0957595 C104.992646,98.0957595 104.448617,98.3929697 104.01912,99.0050213 L102.305343,101.513677 L104.598519,105.007157 C104.900852,105.475641 105.157708,105.690573 105.919012,105.784605 L105.919012,106.382384 L105.919012,106.382384 Z M122.375478,101.177846 C122.375478,98.8010041 123.084569,97.8741112 124.147364,97.8741112 C125.134364,97.8741112 125.691868,98.8010041 125.691868,101.177846 L122.375478,101.177846 L122.375478,101.177846 Z M127.518493,101.882252 C127.518493,99.2081989 126.212317,97.2780115 124.146521,97.2780115 C122.042829,97.2780115 120.550538,99.2090385 120.550538,101.939343 C120.550538,104.264131 122.075673,106.603193 124.389903,106.603193 C126.155051,106.603193 127.123524,105.53609 127.498281,103.751989 L126.901196,103.642005 C126.567705,104.950905 125.948724,105.897109 124.571807,105.897109 C123.32374,105.897109 122.374636,104.483261 122.374636,101.883091 L127.518493,101.883091 L127.518493,101.882252 Z M128.472649,106.382384 L128.472649,103.27511 L129.071419,103.27511 C129.254165,104.447159 130.010417,106.007933 131.380596,106.007933 C132.31033,106.007933 133.018579,105.451293 133.018579,104.392587 C133.018579,101.996434 128.547601,103.05682 128.547601,99.7858279 C128.547601,98.6339283 129.386383,97.2788511 131.02605,97.2788511 C132.049263,97.2788511 132.460233,97.8354906 132.796251,97.8354906 C132.980682,97.8354906 133.018579,97.6314734 133.094372,97.4996598 L133.688089,97.4996598 L133.688089,100.193862 L133.094372,100.193862 C132.887203,99.1519473 132.260643,97.8749507 131.101002,97.8749507 C130.279905,97.8749507 129.739244,98.41228 129.739244,99.2098781 C129.739244,101.440634 134.359283,100.4365 134.359283,103.852739 C134.359283,105.007997 133.448076,106.603193 131.474075,106.603193 C130.224323,106.603193 129.852092,105.93405 129.401542,105.93405 C129.199426,105.93405 129.105105,106.214469 129.070576,106.382384 L128.472649,106.382384 L128.472649,106.382384 Z M134.989212,106.382384 L134.989212,103.27511 L135.587981,103.27511 C135.770727,104.447159 136.525294,106.007933 137.897158,106.007933 C138.826892,106.007933 139.535141,105.451293 139.535141,104.392587 C139.535141,101.996434 135.064163,103.05682 135.064163,99.7858279 C135.064163,98.6339283 135.904629,97.2788511 137.542612,97.2788511 C138.565826,97.2788511 138.975111,97.8354906 139.311129,97.8354906 C139.497244,97.8354906 139.535141,97.6314734 139.611777,97.4996598 L140.205493,97.4996598 L140.205493,100.193862 L139.611777,100.193862 C139.404608,99.1519473 138.776363,97.8749507 137.616722,97.8749507 C136.795625,97.8749507 136.254964,98.41228 136.254964,99.2098781 C136.254964,101.440634 140.875003,100.4365 140.875003,103.852739 C140.875003,105.007997 139.963796,106.603193 137.98811,106.603193 C136.740043,106.603193 136.367812,105.93405 135.917262,105.93405 C135.715145,105.93405 135.620825,106.214469 135.586296,106.382384 L134.989212,106.382384 Z" id="Shape" fill="#FFFFFF"></path>
                    <path d="M140.385011,87.9503729 C140.386132,87.3652496 140.619856,86.8045712 141.0347,86.3918525 C141.449545,85.9791339 142.011477,85.7482351 142.596705,85.7500118 C143.180148,85.7500118 143.739658,85.9819243 144.151978,86.3946428 C144.564298,86.8073613 144.795601,87.3670357 144.794967,87.9503729 C144.798291,88.5353786 144.56815,89.0975654 144.155514,89.5123375 C143.742877,89.9271096 143.181826,90.1602094 142.596705,90.1599889 C142.009805,90.1619936 141.446336,89.9298989 141.031174,89.5151285 C140.616013,89.100358 140.383447,88.5371681 140.385011,87.9503729 Z M144.409644,87.9503729 C144.408705,86.9500151 143.598085,86.139166 142.597546,86.1377719 C141.593749,86.1359113 140.777856,86.9467652 140.773683,87.9503729 C140.773683,88.9588669 141.588869,89.7739051 142.597546,89.7739051 C143.079773,89.7725691 143.541693,89.5796424 143.881573,89.2376146 C144.221454,88.8955869 144.411419,88.4325106 144.409644,87.9503729 L144.409644,87.9503729 Z M142.127279,88.0958854 L142.127279,89.2170885 L141.723472,89.2170885 L141.723472,86.6256204 L142.561372,86.6256204 C143.035845,86.6256204 143.528827,86.7551518 143.528827,87.3414073 C143.528827,87.6391612 143.347955,87.8746727 142.999671,87.9461673 L142.999671,87.958784 C143.359732,88.0285963 143.400954,88.1867255 143.439653,88.4676572 C143.475827,88.7124209 143.505271,88.9824181 143.594445,89.2179296 L143.077067,89.2179296 C143.047623,89.0724172 143.008084,88.9075591 142.989576,88.7536355 C142.960131,88.5307406 142.960131,88.3255091 142.841513,88.2027067 C142.743085,88.0967265 142.608483,88.1093432 142.46715,88.0967265 L142.127279,88.0967265 L142.127279,88.0958854 L142.127279,88.0958854 Z M142.5538,87.6938335 C142.936576,87.6795346 143.024068,87.5214054 143.024068,87.3229028 C143.024068,87.130288 142.936576,87.0293545 142.615213,87.0293545 L142.127279,87.0293545 L142.127279,87.6938335 L142.5538,87.6938335 Z" id="Shape" fill="#D9782D"></path>
                </g>
            </g>
        </g>
    </g>
</svg>