<?xml version="1.0" encoding="UTF-8"?>
<svg width="39px" height="25px" viewBox="0 0 39 25" version="1.1" xmlns="http://www.w3.org/2000/svg" xmlns:xlink="http://www.w3.org/1999/xlink">
    <!-- Generator: Sketch 57.1 (83088) - https://sketch.com -->
    <title>Group 3</title>
    <desc>Created with Sketch.</desc>
    <g id="home" stroke="none" stroke-width="1" fill="none" fill-rule="evenodd">
        <g id="zerodark-home-desktop-copy-5" transform="translate(-1196.000000, -7975.000000)" fill="#1C1B1B">
            <g id="Group-3" transform="translate(1196.000000, 7975.000000)">
                <path d="M11.977381,19.427381 L5.41785714,19.427381 L5.41785714,13.1130952 L12.2940476,13.1130952 C12.2940476,13.1130952 14.7845238,13.0809524 14.7845238,16.3583333 C14.7845238,19.0904762 12.9630952,19.4 11.977381,19.427381 L11.977381,19.427381 Z M5.41785714,4.2 L11.4095238,4.2 L12.2940476,4.2 C12.2940476,4.2 13.9654762,4.2 13.9654762,6.65714286 C13.9654762,9.11547619 12.9821429,9.47142857 11.8678571,9.47142857 L5.41785714,9.47142857 L5.41785714,4.2 Z M15.375,10.7869048 C15.375,10.7869048 18.9797619,10.5190476 18.9797619,6.29166667 C18.9797619,2.06309524 16.0309524,-1.77635684e-15 12.2940476,-1.77635684e-15 L5.41785714,-1.77635684e-15 L5.21547619,-1.77635684e-15 L0,-1.77635684e-15 L0,23.6261905 L5.21547619,23.6261905 L5.41785714,23.6261905 L12.2940476,23.6261905 C12.2940476,23.6261905 19.7988095,23.8630952 19.7988095,16.6535714 C19.7988095,16.6535714 20.127381,10.7869048 15.375,10.7869048 L15.375,10.7869048 Z" id="Fill-17"></path>
                <path d="M33.5041667,13.1136905 L25.7434524,13.1136905 C25.7434524,13.1136905 26.2517857,9.47202381 29.9005952,9.47202381 C33.5505952,9.47202381 33.5041667,13.1136905 33.5041667,13.1136905 M29.8089286,6.01130952 C20.7232143,6.01130952 20.7315476,15.0886905 20.7315476,15.0886905 C20.7315476,15.0886905 20.1077381,24.1196429 29.8089286,24.1196429 C29.8089286,24.1196429 37.8934524,24.5815476 37.8934524,17.8375 L33.735119,17.8375 C33.735119,17.8375 33.8744048,20.3779762 29.9470238,20.3779762 C29.9470238,20.3779762 25.789881,20.6565476 25.789881,16.2672619 L38.0315476,16.2672619 C38.0315476,16.2672619 39.3708333,6.01130952 29.8089286,6.01130952" id="Fill-19"></path>
                <polygon id="Fill-21" points="34.4732143 1.34940476 24.7255952 1.34940476 24.7255952 3.73035714 34.4732143 3.73035714"></polygon>
            </g>
        </g>
    </g>
</svg>