<?xml version="1.0" encoding="UTF-8"?>
<svg width="25px" height="25px" viewBox="0 0 25 25" version="1.1" xmlns="http://www.w3.org/2000/svg" xmlns:xlink="http://www.w3.org/1999/xlink">
    <!-- Generator: Sketch 57.1 (83088) - https://sketch.com -->
    <title>Fill 9</title>
    <desc>Created with Sketch.</desc>
    <g id="home" stroke="none" stroke-width="1" fill="none" fill-rule="evenodd">
        <g id="zerodark-home-desktop-copy-5" transform="translate(-1058.000000, -7975.000000)" fill="#1C1B1B">
            <path d="M1078.76484,7980.76406 C1078.53984,7981.06875 1076.75078,7983.3625 1072.80312,7984.97422 C1073.05156,7985.48203 1073.28984,7986 1073.51094,7986.52031 C1073.58984,7986.70469 1073.66641,7986.88828 1073.74141,7987.07109 C1077.29375,7986.625 1080.82422,7987.34062 1081.17578,7987.41484 C1081.15234,7984.89531 1080.25156,7982.58125 1078.76484,7980.76406 M1067.99844,7977.13594 C1068.29297,7977.53125 1070.23281,7980.17188 1071.98203,7983.38594 C1075.77891,7981.96328 1077.38594,7979.80313 1077.57812,7979.52969 C1075.69219,7977.85625 1073.21328,7976.83906 1070.5,7976.83906 C1069.63906,7976.83906 1068.80078,7976.94219 1067.99844,7977.13594 M1060.04922,7985.32891 C1060.52656,7985.33516 1064.925,7985.35469 1069.91953,7984.02812 C1068.15078,7980.88359 1066.24219,7978.23906 1065.96094,7977.85312 C1062.97422,7979.2625 1060.74141,7982.01562 1060.04922,7985.32891 M1062.56797,7994.65469 C1062.81016,7994.24063 1065.73984,7989.38906 1071.24688,7987.60938 C1071.38594,7987.56406 1071.52656,7987.52188 1071.66719,7987.48203 C1071.39922,7986.87578 1071.10781,7986.26875 1070.80156,7985.67031 C1065.46953,7987.26562 1060.29609,7987.19922 1059.82891,7987.18984 C1059.82578,7987.29844 1059.82344,7987.40703 1059.82344,7987.51562 C1059.82344,7990.25781 1060.8625,7992.76172 1062.56797,7994.65469 M1074.67109,7997.34453 C1074.51172,7996.40781 1073.89219,7993.14297 1072.39297,7989.24766 C1072.36953,7989.25547 1072.34609,7989.26328 1072.32266,7989.27109 C1066.30078,7991.36953 1064.13906,7995.54609 1063.94688,7995.93906 C1065.75703,7997.35078 1068.03203,7998.19297 1070.5,7998.19297 C1071.97891,7998.19297 1073.38906,7997.89062 1074.67109,7997.34453 M1081.04219,7989.21094 C1080.67656,7989.09531 1077.7375,7988.21875 1074.39141,7988.75391 C1075.78828,7992.59141 1076.35625,7995.71719 1076.46563,7996.36641 C1078.86094,7994.74687 1080.56641,7992.18125 1081.04219,7989.21094 M1070.5,8000 C1063.60781,8000 1058,7994.39219 1058,7987.5 C1058,7980.60703 1063.60781,7975 1070.5,7975 C1077.39297,7975 1083,7980.60703 1083,7987.5 C1083,7994.39219 1077.39297,8000 1070.5,8000" id="Fill-9"></path>
        </g>
    </g>
</svg>