<?xml version="1.0" encoding="UTF-8"?>
<svg width="26px" height="25px" viewBox="0 0 26 25" version="1.1" xmlns="http://www.w3.org/2000/svg" xmlns:xlink="http://www.w3.org/1999/xlink">
    <!-- Generator: Sketch 57.1 (83088) - https://sketch.com -->
    <title>Fill 34</title>
    <desc>Created with Sketch.</desc>
    <g id="home" stroke="none" stroke-width="1" fill="none" fill-rule="evenodd">
        <g id="zerodark-home-desktop-copy-5" transform="translate(-1127.000000, -7975.000000)" fill="#1C1B1B">
            <path d="M1139.81576,7975 C1132.73862,7975 1127,7980.73781 1127,7987.81736 C1127,7993.47908 1130.67195,7998.28289 1135.76573,7999.97788 C1136.40656,8000.09563 1136.64046,7999.69992 1136.64046,7999.36028 C1136.64046,7999.05589 1136.62924,7998.25005 1136.62284,7997.18066 C1133.05743,7997.95526 1132.30526,7995.46244 1132.30526,7995.46244 C1131.7229,7993.98213 1130.88262,7993.58802 1130.88262,7993.58802 C1129.71871,7992.79259 1130.97073,7992.80861 1130.97073,7992.80861 C1132.25639,7992.89913 1132.93327,7994.12952 1132.93327,7994.12952 C1134.07715,7996.08805 1135.93314,7995.52252 1136.66369,7995.1941 C1136.77984,7994.36583 1137.11147,7993.8011 1137.47754,7993.48068 C1134.63146,7993.15706 1131.6396,7992.05804 1131.6396,7987.1469 C1131.6396,7985.74749 1132.13864,7984.60361 1132.9589,7983.70725 C1132.82673,7983.38283 1132.38696,7982.08035 1133.08386,7980.31567 C1133.08386,7980.31567 1134.16045,7979.97122 1136.60842,7981.62937 C1137.63134,7981.345 1138.72715,7981.20322 1139.81736,7981.19761 C1140.90597,7981.20322 1142.00259,7981.345 1143.02631,7981.62937 C1145.47267,7979.97122 1146.54686,7980.31567 1146.54686,7980.31567 C1147.24616,7982.08035 1146.8064,7983.38283 1146.67422,7983.70725 C1147.49609,7984.60361 1147.99193,7985.74749 1147.99193,7987.1469 C1147.99193,7992.07006 1144.99526,7993.15386 1142.14037,7993.47107 C1142.60016,7993.86678 1143.01029,7994.64859 1143.01029,7995.84454 C1143.01029,7997.55795 1142.99427,7998.93974 1142.99427,7999.36028 C1142.99427,7999.70312 1143.22497,8000.10204 1143.87541,7999.97628 C1148.96438,7998.27808 1152.63313,7993.47748 1152.63313,7987.81736 C1152.63313,7980.73781 1146.89451,7975 1139.81576,7975" id="Fill-34"></path>
        </g>
    </g>
</svg>