<?xml version="1.0" encoding="UTF-8"?>
<svg width="25px" height="25px" viewBox="0 0 25 25" version="1.1" xmlns="http://www.w3.org/2000/svg" xmlns:xlink="http://www.w3.org/1999/xlink">
    <!-- Generator: Sketch 57.1 (83088) - https://sketch.com -->
    <title>Group 14</title>
    <desc>Created with Sketch.</desc>
    <g id="home" stroke="none" stroke-width="1" fill="none" fill-rule="evenodd">
        <g id="zerodark-home-desktop-copy-5" transform="translate(-1265.000000, -7975.000000)" fill="#1C1B1B">
            <g id="Group-14" transform="translate(1265.000000, 7975.000000)">
                <path d="M3.55750034,0.25000028 C2.02411988,0.25000028 0.782608986,1.49151117 0.782608986,3.02489164 C0.782608986,4.5582721 2.02411988,5.799783 3.55750034,5.799783 C5.09088081,5.799783 6.33185909,4.5582721 6.33185909,3.02489164 C6.33185909,1.49151117 5.09088081,0.25000028 3.55750034,0.25000028 Z M24.4549355,13.0576418 C24.089566,10.0489353 22.7175659,8.1800113 18.6574898,8.1800113 C16.2767289,8.1800113 14.670381,9.05615263 13.9987614,10.326957 L13.925794,10.326957 L13.925794,8.1800113 L9.50034829,8.1800113 L9.50034829,24.0538812 L14.1303158,24.0538812 L14.1303158,16.1829897 C14.1303158,14.1084788 14.5388266,12.1085331 17.080968,12.1085331 C19.6353594,12.1085331 19.8249681,14.4738484 19.8249681,16.3283919 L19.8249681,24.0538812 L24.5859573,24.0538812 L24.5859573,15.3356093 C24.5859573,14.5175223 24.5417508,13.7585549 24.4549355,13.0576418 Z M0.782608986,12.4004027 L0.782608986,24.0538812 L6.33185909,24.0538812 L6.33185909,8.1800113 L0.782608986,8.1800113 L0.782608986,12.4004027 L0.782608986,12.4004027 Z" id="Fill-47-Copy"></path>
            </g>
        </g>
    </g>
</svg>