<?xml version="1.0" encoding="UTF-8"?>
<svg width="32px" height="25px" viewBox="0 0 32 25" version="1.1" xmlns="http://www.w3.org/2000/svg" xmlns:xlink="http://www.w3.org/1999/xlink">
    <!-- Generator: Sketch 57.1 (83088) - https://sketch.com -->
    <title>Fill 50</title>
    <desc>Created with Sketch.</desc>
    <g id="home" stroke="none" stroke-width="1" fill="none" fill-rule="evenodd">
        <g id="zerodark-home-desktop-copy-5" transform="translate(-921.000000, -7975.000000)" fill="#1C1B1B">
            <path d="M952.254018,7977.96598 C951.117823,7978.45804 949.881485,7978.7968 948.576529,7978.96617 C949.914866,7978.16997 950.931136,7976.94909 951.407126,7975.45745 C950.169551,7976.18627 948.779907,7976.71171 947.322264,7976.99978 C946.168142,7975.76282 944.491667,7975 942.627269,7975 C939.10185,7975 936.219945,7977.8306 936.219945,7981.30471 C936.219945,7981.81346 936.305252,7982.28822 936.406632,7982.74628 C931.068122,7982.49159 926.338509,7979.98306 923.185846,7976.15227 C922.643712,7977.10178 922.304955,7978.16997 922.304955,7979.32224 C922.304955,7981.52539 923.457223,7983.45779 925.151625,7984.57668 C924.101355,7984.55937 923.117848,7984.2713 922.254265,7983.79655 C922.254265,7983.83055 922.254265,7983.84786 922.254265,7983.88124 C922.254265,7984.69475 922.406953,7985.44088 922.694402,7986.15239 C923.474531,7988.1361 925.254241,7989.62712 927.407324,7990.05118 C926.846645,7990.20387 926.30451,7990.28794 925.711686,7990.28794 C925.304931,7990.28794 924.898175,7990.23725 924.507492,7990.15256 C925.33893,7992.66109 927.694155,7994.49149 930.491989,7994.55949 C928.287597,7996.25451 925.542308,7997.25471 922.542332,7997.25471 C922.01627,7997.25471 921.525444,7997.22009 921,7997.1694 C923.847287,7998.94973 927.220019,8000 930.830745,8000 C940.847559,8000 947.034197,7993.06785 948.643292,7985.86432 C948.932595,7984.57668 949.067356,7983.3051 949.067356,7982.05084 C949.067356,7981.77946 949.067356,7981.49201 949.067356,7981.23733 C950.304931,7980.33913 951.407126,7979.22024 952.254018,7977.96598" id="Fill-50"></path>
        </g>
    </g>
</svg>