<?xml version="1.0" encoding="UTF-8"?>
<svg width="25px" height="25px" viewBox="0 0 25 25" version="1.1" xmlns="http://www.w3.org/2000/svg" xmlns:xlink="http://www.w3.org/1999/xlink">
    <!-- Generator: Sketch 57.1 (83088) - https://sketch.com -->
    <title>Group 2</title>
    <desc>Created with Sketch.</desc>
    <g id="home" stroke="none" stroke-width="1" fill="none" fill-rule="evenodd">
        <g id="zerodark-home-desktop-copy-5" transform="translate(-989.000000, -7975.000000)" fill="#1C1B1B">
            <g id="Group-2" transform="translate(989.000000, 7975.000000)">
                <path d="M6.8734375,21.034375 L7.24921875,21.2578125 C8.83125,22.1960938 10.64375,22.6921875 12.4914062,22.6929687 L12.4960937,22.6929687 C18.1726562,22.6929687 22.79375,18.0734375 22.7960937,12.3960937 C22.796875,9.6453125 21.7265625,7.0578125 19.7820312,5.11171875 C17.8375,3.165625 15.2507812,2.09296875 12.5,2.0921875 C6.81875,2.0921875 2.1984375,6.7109375 2.19609375,12.3882813 C2.1953125,14.3335938 2.73984375,16.228125 3.77109375,17.8679688 L4.015625,18.2570312 L2.975,22.0570313 L6.8734375,21.034375 Z M-1.77635684e-15,25 L1.7578125,18.5804687 C0.6734375,16.7015625 0.103125,14.5703125 0.10390625,12.3875 C0.10625,5.55703125 5.665625,0 12.4960937,0 C15.8109375,0.00078125 18.9226562,1.29140625 21.2617187,3.6328125 C23.6015625,5.97421875 24.8890625,9.08671875 24.8882812,12.396875 C24.8851562,19.2273438 19.3257812,24.7851562 12.4960937,24.7851562 L12.4960937,24.7851562 L12.490625,24.7851562 C10.4171875,24.784375 8.37890625,24.2640625 6.56875,23.2773437 L-1.77635684e-15,25 Z" id="Fill-54"></path>
                <path d="M9.39875,7.20859375 C9.1471875,6.6046875 8.8925,6.68671875 8.701875,6.67734375 C8.52140625,6.66796875 8.31515625,6.66640625 8.10890625,6.66640625 C7.901875,6.66640625 7.56671875,6.74375 7.283125,7.05390625 C6.99953125,7.36328125 6.19953125,8.1125 6.19953125,9.6359375 C6.19953125,11.159375 7.30890625,12.63125 7.46359375,12.8382813 C7.61828125,13.0445313 9.6471875,16.1710938 12.7526562,17.5117188 C13.4917187,17.8304688 14.0682812,18.0210938 14.5182812,18.1640625 C15.2596875,18.3992188 15.9346875,18.3664063 16.4682812,18.2867188 C17.0635937,18.1976563 18.3003125,17.5375 18.558125,16.8148438 C18.8167187,16.0914063 18.8167187,15.471875 18.739375,15.3429688 C18.6620312,15.2140625 18.455,15.1359375 18.145625,14.98125 C17.83625,14.8265625 16.3135937,14.0773438 16.03,13.9742188 C15.745625,13.8710938 15.539375,13.8195313 15.333125,14.1289063 C15.126875,14.4390625 14.533125,15.1359375 14.3526562,15.3429688 C14.1721875,15.5492188 13.9917187,15.575 13.6815625,15.4203125 C13.3721875,15.265625 12.3745312,14.9382813 11.1917187,13.8835938 C10.2714062,13.0632813 9.6503125,12.0492188 9.4690625,11.7398438 C9.28859375,11.4296875 9.4503125,11.2625 9.605,11.1078125 C9.7440625,10.9695313 9.91515625,10.7460938 10.0698437,10.565625 C10.2245312,10.3851563 10.2760937,10.2554688 10.3792187,10.0492188 C10.4823437,9.8421875 10.4307812,9.66171875 10.3534375,9.50703125 C10.2760937,9.3515625 9.6565625,7.828125 9.39875,7.20859375" id="Fill-55"></path>
            </g>
        </g>
    </g>
</svg>