<?xml version="1.0" encoding="UTF-8"?>
<svg width="171px" height="157px" viewBox="0 0 171 157" version="1.1" xmlns="http://www.w3.org/2000/svg" xmlns:xlink="http://www.w3.org/1999/xlink">
    <!-- Generator: Sketch 57.1 (83088) - https://sketch.com -->
    <title>Group 16</title>
    <desc>Created with Sketch.</desc>
    <g id="home" stroke="none" stroke-width="1" fill="none" fill-rule="evenodd">
        <g id="zerodark-home-desktop-copy-5" transform="translate(-953.000000, -2256.000000)">
            <g id="Group-20" transform="translate(4.000000, 0.000000)">
                <g id="Group-16" transform="translate(951.090019, 2257.430044)">
                    <circle id="Oval-Copy-5" stroke="#FFFFFF" stroke-width="2.45000005" cx="83.8419519" cy="51.5173439" r="51.5173439"></circle>
                    <circle id="Oval-Copy-4" stroke="#FFFFFF" stroke-width="2.45000005" cx="51.5173439" cy="102.832659" r="51.5173439"></circle>
                    <circle id="Oval-Copy-3" stroke="#FFFFFF" stroke-width="2.45000005" cx="115.762502" cy="102.832659" r="51.5173439"></circle>
                    <path d="M84.0447218,62.2254621 C95.8653777,71.6652674 103.438745,86.200007 103.438745,102.503601 C103.438745,118.807196 95.8653777,133.341935 84.0447218,142.781741 C72.2224553,133.341689 64.6492159,118.807058 64.6492159,102.503601 C64.6492159,86.2858226 72.1430671,71.8183266 83.8569354,62.3749473 Z" id="Combined-Shape" fill="#FFFFFF" opacity="0.349632626"></path>
                    <path d="M116.042373,50.9112575 C122.932565,50.9112575 129.506828,52.2639058 135.514104,54.718143 C133.663621,81.489409 111.361621,102.63063 84.1218231,102.63063 C77.2318493,102.63063 70.6577835,101.278067 64.6506613,98.8239773 C66.5005751,72.0524789 88.8025759,50.9112575 116.042373,50.9112575 Z" id="Combined-Shape" fill="#FFFFFF" opacity="0.349632626"></path>
                    <path d="M83.3129225,50.9112575 C90.2031138,50.9112575 96.7773772,52.2639058 102.784653,54.718143 C100.93417,81.489409 78.6321697,102.63063 51.3923721,102.63063 C44.5023984,102.63063 37.9283326,101.278067 31.9212104,98.8239773 C33.7711242,72.0524789 56.0731249,50.9112575 83.3129225,50.9112575 Z" id="Combined-Shape-Copy" fill="#FFFFFF" opacity="0.349632626" transform="translate(67.353040, 76.770944) scale(-1, 1) translate(-67.353040, -76.770944) "></path>
                    <path d="M102.92117,99.3852608 C97.0209291,101.740109 90.5826231,103.034688 83.8419519,103.034688 C76.9520953,103.034688 70.378136,101.682171 64.3710967,99.2281601 C65.394733,84.3960278 72.697344,71.2925138 83.639182,62.5545199 C94.6214698,71.323706 101.936989,84.4893144 102.92117,99.3852608 Z" id="Combined-Shape" stroke="#FFFFFF" stroke-width="0.980000019" fill="#FFFFFF"></path>
                </g>
            </g>
        </g>
    </g>
</svg>