<?xml version="1.0" encoding="UTF-8"?>
<svg width="127px" height="155px" viewBox="0 0 127 155" version="1.1" xmlns="http://www.w3.org/2000/svg" xmlns:xlink="http://www.w3.org/1999/xlink">
    <!-- Generator: Sketch 57.1 (83088) - https://sketch.com -->
    <title>Group</title>
    <desc>Created with Sketch.</desc>
    <g id="home" stroke="none" stroke-width="1" fill="none" fill-rule="evenodd">
        <g id="zerodark-home-desktop-copy-5" transform="translate(-971.000000, -2834.000000)" fill-rule="nonzero">
            <g id="Group-20" transform="translate(4.000000, 0.000000)">
                <g id="Group" transform="translate(967.750019, 2834.160055)">
                    <g transform="translate(47.470785, 0.000000)" fill="#FFFFFF" id="Path">
                        <path d="M16.6642041,14.5210241 C16.3452452,14.5210241 16.0262863,14.4706621 15.7073273,14.3867256 C13.9278724,13.8663189 12.9206337,11.9861401 13.4410404,10.2066851 L15.69054,2.65239515 C16.2109467,0.872940175 18.0743382,-0.1510858 19.8705805,0.386108154 C21.6500355,0.906514797 22.6572741,2.78669364 22.1368675,4.56614861 L19.8873678,12.1204386 C19.4508977,13.5641473 18.1247001,14.5210241 16.6642041,14.5210241 Z"></path>
                        <path d="M11.8630331,30.7039919 C11.5440742,30.7039919 11.2251153,30.65363 10.9061564,30.5696934 C9.12670141,30.0492868 8.11946275,28.169108 8.63986939,26.389653 L14.2132567,7.60465191 C14.7336633,5.82519694 16.6138421,4.80117096 18.3932971,5.33836492 C20.1727521,5.85877156 21.1799908,7.7389504 20.6595841,9.51840537 L15.0861968,28.3034064 C14.6497267,29.7471152 13.3235292,30.7039919 11.8630331,30.7039919 Z"></path>
                        <path d="M27.2569974,22.343911 C26.9380384,22.343911 26.6190795,22.2935491 26.3001206,22.2096125 L18.7458306,19.9601129 C16.9663757,19.4397062 15.959137,17.5595274 16.4795437,15.7800724 C16.9999503,14.0006174 18.8801291,12.9765914 20.6595841,13.5137854 L28.2138741,15.7632851 C29.9933291,16.2836917 31.0005677,18.1638706 30.4801611,19.9433255 C30.043691,21.4038216 28.7174934,22.343911 27.2569974,22.343911 Z"></path>
                        <path d="M22.3047406,20.883415 C21.9857817,20.883415 21.6668228,20.833053 21.3478639,20.7491165 L2.56286278,15.1757292 C0.783407812,14.6553226 -0.223830851,12.7751437 0.296575792,10.9956887 C0.816982435,9.21623377 2.68037396,8.20899511 4.47661625,8.72940175 L23.2616173,14.302789 C25.0410723,14.8231957 26.048311,16.7033745 25.5279043,18.4828295 C25.0914342,19.9265382 23.7484493,20.883415 22.3047406,20.883415 Z"></path>
                    </g>
                    <g transform="translate(0.746103, 41.222175)" fill="#FFFFFF" id="Path">
                        <path d="M13.3459123,23.593633 C12.9598041,23.593633 12.5569087,23.5264838 12.1708005,23.375398 C10.4249202,22.7374802 9.55197999,20.7901521 10.1898978,19.0610591 L16.3340537,2.52555766 C16.9719715,0.779677311 18.9192996,-0.0932628639 20.6483926,0.544654956 C22.394273,1.18257278 23.2672131,3.12990086 22.6292953,4.8589939 L16.4851395,21.3944953 C15.9983074,22.7542675 14.7056845,23.593633 13.3459123,23.593633 Z"></path>
                        <path d="M10.8613903,30.2749828 C10.4752821,30.2749828 10.0723866,30.2078336 9.68627848,30.0567478 C7.94039813,29.41883 7.06745796,27.4715019 7.70537578,25.7424089 L10.4584948,18.355992 C11.0964126,16.6101116 13.0437407,15.7371715 14.7728337,16.3750893 C16.5187141,17.0130071 17.3916543,18.9603352 16.7537364,20.6894282 L14.0006174,28.0758451 C13.5137854,29.4356173 12.2211625,30.2749828 10.8613903,30.2749828 Z"></path>
                        <path d="M26.7757611,22.9892898 C26.389653,22.9892898 25.9867575,22.9221406 25.6006494,22.7710548 L10.8949649,17.2983914 C9.14908453,16.6604736 8.27614435,14.7131455 8.91406217,12.9840525 C9.55197999,11.2381721 11.4993081,10.3652319 13.2284011,11.0031497 L27.9340856,16.4758132 C29.679966,17.113731 30.5529061,19.0610591 29.9149883,20.7901521 C29.4281563,22.1499243 28.1523206,22.9892898 26.7757611,22.9892898 Z"></path>
                        <path d="M10.9621141,17.0969437 C10.576006,17.0969437 10.1731105,17.0297944 9.78700235,16.8787086 L2.40058548,14.1255896 C0.654705131,13.4876718 -0.218235044,11.5403437 0.419682777,9.81125066 C1.0576006,8.06537031 3.00492868,7.19243014 4.73402172,7.83034796 L12.1204386,10.583467 C13.8663189,11.2213848 14.7392591,13.1687129 14.1013413,14.8978059 C13.6145093,16.2575781 12.3218863,17.0969437 10.9621141,17.0969437 Z"></path>
                    </g>
                    <g transform="translate(94.008942, 40.755861)" fill="#FFFFFF" id="Path">
                        <path d="M14.9649552,24.3285442 C14.797082,24.3285442 14.6124216,24.3117569 14.4277612,24.2949696 C12.5979443,24.0095853 11.338896,22.2804923 11.6410676,20.4506754 L14.3941866,3.02544649 C14.6795709,1.19562959 16.4086639,-0.046631432 18.2384808,0.238752856 C20.0682977,0.524137144 21.327346,2.25323018 21.0251744,4.08304709 L18.2720554,21.508276 C18.0202458,23.1366451 16.5933243,24.3285442 14.9649552,24.3285442 Z"></path>
                        <path d="M13.8569926,31.3624276 C13.6891195,31.3624276 13.5044591,31.3456403 13.3197987,31.3288529 C11.4899818,31.0434687 10.2477207,29.3143756 10.533105,27.4845587 L11.7585787,19.6952464 C12.043963,17.8654295 13.7730561,16.6231685 15.602873,16.9085527 C17.4326899,17.193937 18.6749509,18.9230301 18.3895666,20.752847 L17.1640929,28.5421593 C16.8954959,30.1873158 15.4853618,31.3624276 13.8569926,31.3624276 Z"></path>
                        <path d="M28.0086959,21.0718059 C27.8408227,21.0718059 27.6561623,21.0550186 27.4715019,21.0382313 L19.6821896,19.8127576 C17.8523727,19.5273733 16.5933243,17.7982802 16.8954959,15.9684633 C17.1808802,14.1386464 18.9267606,12.8963854 20.7397902,13.1817697 L28.5291025,14.4072434 C30.3589194,14.6926277 31.6179677,16.4217207 31.3157961,18.2515376 C31.0639865,19.8799068 29.637065,21.0718059 28.0086959,21.0718059 Z"></path>
                        <path d="M20.9748125,19.947056 C20.8069394,19.947056 20.622279,19.9302687 20.4376186,19.9134814 L3.02917699,17.1603624 C1.19936009,16.8749781 -0.0596882418,15.1458851 0.242483357,13.3160682 C0.527867645,11.4862513 2.273748,10.2439902 4.08677759,10.5293745 L21.5120065,13.2824935 C23.3418234,13.5678778 24.6008717,15.2969709 24.2987001,17.1267878 C24.0301031,18.7719443 22.6031817,19.947056 20.9748125,19.947056 Z"></path>
                    </g>
                    <path d="M62.8591536,152.025889 C61.9358515,152.025889 61.1804225,151.27046 61.1804225,150.347158 L61.1804225,111.518107 C61.1804225,110.594805 61.9358515,109.839376 62.8591536,109.839376 C63.7824557,109.839376 64.5378847,110.594805 64.5378847,111.518107 L64.5378847,150.347158 C64.5378847,151.27046 63.7824557,152.025889 62.8591536,152.025889 Z" id="Path" stroke="#FFFFFF" stroke-width="0.980000019" fill="#1C1B1B"></path>
                    <path d="M62.8423663,154.208239 C61.7511911,154.208239 60.6432286,153.973217 59.6192026,153.51996 L25.2220022,137.958122 C22.4353086,136.699074 20.6390663,133.91238 20.6390663,130.840302 L20.6390663,116.252129 C20.6390663,114.405525 22.1499243,112.894667 23.9965285,112.894667 C25.8431327,112.894667 27.3539907,114.405525 27.3539907,116.252129 L27.3539907,130.840302 C27.3539907,131.259985 27.6058004,131.662881 27.9919085,131.830754 L62.3891089,147.392591 C62.6744932,147.52689 62.9934521,147.52689 63.2956237,147.392591 L97.743186,131.830754 C98.1292941,131.646093 98.3811038,131.259985 98.3811038,130.840302 L98.3811038,116.252129 C98.3811038,114.405525 99.8919618,112.894667 101.738566,112.894667 C103.58517,112.894667 105.096028,114.405525 105.096028,116.252129 L105.096028,130.840302 C105.096028,133.895593 103.299786,136.699074 100.496305,137.958122 L66.0487427,153.503172 C65.0247167,153.973217 63.9335415,154.208239 62.8423663,154.208239 Z" id="Path" stroke="#FFFFFF" stroke-width="0.980000019" fill="#1C1B1B"></path>
                    <path d="M62.825579,111.635619 C62.5905566,111.635619 62.3555343,111.585257 62.1372992,111.484533 L23.3082488,93.9250054 C22.7039056,93.6564084 22.3177974,93.0352779 22.3177974,92.3637855 C22.3177974,91.692293 22.7374802,91.1047371 23.3586107,90.8361401 L50.8226516,79.4711306 C51.6788044,79.118597 52.6692558,79.5214925 53.0217893,80.3776454 C53.3743229,81.2337982 52.9714274,82.2242496 52.1152745,82.5767831 L28.2269309,92.4645093 L62.825579,108.127071 L97.5081636,92.4645093 L74.6102714,82.9964659 C73.7541185,82.6439323 73.351223,81.653481 73.7037566,80.7973281 C74.0562901,79.9411753 75.0299541,79.5382798 75.9028943,79.8908133 L102.393271,90.8529275 C103.014402,91.1047371 103.417297,91.7090803 103.434611,92.3805728 C103.450872,93.0520652 103.064764,93.6564084 102.443633,93.9417927 L63.5138587,111.50132 C63.2956237,111.602044 63.0606013,111.635619 62.825579,111.635619 Z" id="Path" fill="#FFFFFF"></path>
                    <g transform="translate(0.000000, 65.470513)" fill="#1C1B1B" id="Path" stroke="#FFFFFF" stroke-width="0.980000019">
                        <path d="M23.9461666,30.2843092 C23.6775696,30.2843092 23.3921853,30.2507345 23.1235883,30.1835853 L2.69343077,24.9795189 C1.28329664,24.6269853 0.276057979,23.4015116 0.175334113,21.9578029 C0.0746102467,20.5140941 0.9139758,19.1711092 2.25696068,18.617128 L46.9447827,0.503619332 C48.6570885,-0.184660422 50.6212038,0.63791782 51.3094836,2.35022355 C52.0145507,4.06252928 51.1751851,6.02664467 49.4628794,6.71492442 L14.2598881,20.9841388 L24.7855321,23.6533213 C26.5817744,24.1065787 27.6729496,25.9363956 27.2196922,27.7326379 C26.8167968,29.2770705 25.4402373,30.2843092 23.9461666,30.2843092 Z"></path>
                        <path d="M101.772141,30.2843092 C100.27807,30.2843092 98.9015105,29.2770705 98.5154023,27.7494252 C98.0621449,25.9531829 99.1533201,24.123366 100.949562,23.6701086 L111.458419,21.0009261 L76.9772822,7.06745796 C75.2649765,6.3791782 74.4256109,4.41506281 75.1138907,2.70275708 C75.8021704,0.990451353 77.7662858,0.1510858 79.4785916,0.839365553 L123.461347,18.617128 C124.804331,19.1543219 125.643697,20.5140941 125.55976,21.9578029 C125.459037,23.4015116 124.451798,24.6269853 123.041664,24.9795189 L102.611506,30.1835853 C102.326122,30.2507345 102.040738,30.2843092 101.772141,30.2843092 Z"></path>
                    </g>
                    <g transform="translate(4.103565, 88.972749)" fill="#1C1B1B" id="Path" stroke="#FFFFFF" stroke-width="0.980000019">
                        <path d="M42.8244305,41.6661061 C42.3208112,41.6661061 41.8171919,41.5485949 41.3471471,41.3135725 L2.26628699,22.125676 C1.29262295,21.638844 0.604343198,20.7155418 0.436470088,19.6411539 C0.268596977,18.566766 0.63791782,17.4755908 1.41013413,16.7033745 L17.5763147,1.07438791 C18.9025123,-0.218235044 21.0345008,-0.184660422 22.3271237,1.15832446 C23.6197467,2.48452204 23.586172,4.61651054 22.2431872,5.90913349 L9.51840537,18.2142325 L42.0522142,34.1957526 L56.2710667,18.7346391 C57.530115,17.3748669 59.6453162,17.2741431 61.0218757,18.5331914 C62.3816479,19.7922397 62.4823718,21.9074409 61.2233234,23.2840004 L45.3089526,40.6085055 C44.6374601,41.2967852 43.7309453,41.6661061 42.8244305,41.6661061 Z"></path>
                        <path d="M74.7035342,41.6661061 C73.7802321,41.6661061 72.8905046,41.2967852 72.2357995,40.5749308 L56.3214286,23.2504258 C55.0623803,21.8906536 55.1631041,19.7586651 56.5228763,18.4996168 C57.8826485,17.2405685 60.014637,17.3412923 61.2736854,18.7010645 L75.4925378,34.162178 L108.026347,18.1806579 L95.3015649,5.87555887 C93.9753673,4.58293592 93.9417927,2.46773473 95.2176283,1.12474984 C96.493464,-0.218235044 98.6254525,-0.251809666 99.9684374,1.04081329 L116.134618,16.6697999 C116.923622,17.4252289 117.292942,18.5331914 117.108282,19.6075793 C116.940409,20.6819672 116.252129,21.6220566 115.278465,22.0921014 L76.1808176,41.3135725 C75.7107729,41.5485949 75.1903662,41.6661061 74.7035342,41.6661061 Z"></path>
                    </g>
                    <g transform="translate(40.289547, 29.004743)" fill="#FFFFFF" id="Shape">
                        <path d="M39.8605375,10.1432664 C39.6423024,10.1432664 39.4072801,10.1264791 39.189045,10.0929044 C37.8964221,9.90824403 36.7548849,9.2535389 35.9658813,8.1959383 C35.1768777,7.17191232 34.8411315,5.87928937 35.0257919,4.58666642 C35.2104523,3.29404347 35.8819447,2.15250632 36.922758,1.3635027 C37.9635713,0.574499077 39.2561943,0.238752856 40.5488172,0.423413278 C41.8414402,0.608073699 42.96619,1.27956614 43.7551936,2.32037943 C44.5441972,3.36119271 44.8799435,4.65381566 44.695283,5.94643862 C44.5106226,7.23906157 43.8391302,8.38059872 42.7983169,9.16960234 C41.942164,9.80752016 40.9181381,10.1432664 39.8605375,10.1432664 Z M38.3832541,6.36612139 C38.6686384,6.75222955 39.1218958,7.00403921 39.5919405,7.07118846 C40.0619852,7.1383377 40.5656045,7.00403921 40.9517127,6.71865493 C41.3378208,6.43327064 41.5896305,5.98001324 41.6567797,5.50996853 C41.723929,5.02313651 41.5896305,4.53630449 41.3042462,4.15019633 L41.0524365,4.33485675 L41.3042462,4.13340902 C41.3042462,4.13340902 41.3042462,4.13340902 41.3042462,4.13340902 C41.0188619,3.74730087 40.5656045,3.4954912 40.0955598,3.42834196 C39.6087278,3.36119271 39.1218958,3.4954912 38.7190003,3.7976628 C38.3496795,4.06625978 38.0810825,4.51951718 38.0139332,5.0063492 C37.9635713,5.49318122 38.0978698,5.98001324 38.3832541,6.36612139 Z"></path>
                        <path d="M5.27867668,10.1432664 C4.22107608,10.1432664 3.1970501,9.79073285 2.34089724,9.13602772 C1.31687127,8.38059872 0.645378823,7.23906157 0.460718401,5.92965131 C0.276057979,4.63702835 0.611804201,3.3444054 1.40080782,2.30359212 C2.18981144,1.26277883 3.31456128,0.591286388 4.60718423,0.423413278 C5.89980718,0.238752856 7.19243014,0.574499077 8.23324342,1.3635027 C9.27405671,2.15250632 9.94554915,3.29404347 10.1302096,4.58666642 C10.31487,5.87928937 9.96233646,7.17191232 9.17333284,8.1959383 C8.40111653,9.21996427 7.24279207,9.89145672 5.95016912,10.0761171 C5.71514676,10.1264791 5.49691172,10.1432664 5.27867668,10.1432664 Z M3.81818061,4.15019633 C3.81818061,4.15019633 3.81818061,4.16698364 3.81818061,4.15019633 C3.53279633,4.53630449 3.39849784,5.02313651 3.46564708,5.50996853 C3.53279633,5.99680055 3.78460599,6.43327064 4.17071415,6.71865493 C4.5568223,7.00403921 5.06044163,7.1383377 5.53048634,7.07118846 C6.01731836,7.00403921 6.45378845,6.73544224 6.73917274,6.36612139 C7.02455703,5.98001324 7.15885551,5.49318122 7.09170627,5.0063492 C7.02455703,4.51951718 6.75596005,4.06625978 6.36985189,3.78087549 C6.01731836,3.51227851 5.51369903,3.36119271 5.02686701,3.44512927 C4.5568223,3.51227851 4.12035221,3.76408818 3.81818061,4.15019633 L4.06999028,4.33485675 L3.81818061,4.15019633 Z"></path>
                    </g>
                    <g transform="translate(17.999728, 27.792326)" fill="#FFFFFF" id="Path">
                        <path d="M32.4703901,77.9845209 C31.8660469,77.9845209 31.2449164,77.8166478 30.7077224,77.4809015 C29.1297152,76.5072375 28.6596705,74.4256109 29.6333345,72.864391 C30.9763194,70.6988279 31.1945545,67.307791 31.1609798,66.1830412 C31.1609798,27.3204161 2.11893169,6.45378845 1.83354741,6.25234072 C0.322689411,5.19474012 -0.046631432,3.09632624 1.01096916,1.56868093 C2.06856976,0.0578229356 4.16698364,-0.311497908 5.69462895,0.746102689 C7.00403921,1.6694048 37.8759043,23.8454427 37.8759043,66.06553 C37.8926916,66.5691494 37.9934154,72.1257493 35.3410203,76.4065136 C34.6863152,77.4305396 33.5951399,77.9845209 32.4703901,77.9845209 Z"></path>
                        <path d="M57.2484612,77.9677336 C56.0397748,77.9677336 54.8814504,77.3298157 54.2771072,76.1882786 C51.9100963,71.7396412 51.8429471,66.6362986 51.8429471,66.06553 C51.8429471,23.8454427 82.7148121,1.6694048 84.0242224,0.746102689 C85.5350804,-0.328285219 87.6334942,0.0410356246 88.7078821,1.56868093 C89.7654827,3.07953893 89.4129492,5.17795281 87.9020912,6.25234072 L87.9020912,6.25234072 C87.5999196,6.45378845 58.5578715,27.4379273 58.5578715,66.06553 C58.5578715,66.0991046 58.6082334,70.0105481 60.203028,73.0322641 C61.0759681,74.6774206 60.4548376,76.7086852 58.8096811,77.5816254 C58.3228491,77.8502224 57.7856552,77.9677336 57.2484612,77.9677336 Z"></path>
                    </g>
                </g>
            </g>
        </g>
    </g>
</svg>